<svg width="16" height="16" fill="none" xmlns="http://www.w3.org/2000/svg">
  <g clip-path="url(#a)" fill="#F4F4FD">
    <path d="M15.9843 4.70392c-.0375-.85014-.175-1.4346-.3719-1.94105-.2032-.53758-.5157-1.01888-.9252-1.41898-.4001-.40633-.8846-.72206-1.4159-.92206-.5094-.19693-1.0908-.33441-1.941-.3719-.8565-.04065-1.1284-.05005-3.30067-.05005-2.1723 0-2.4442.0094-3.29751.04688-.85015.03748-1.43461.17508-1.94093.3719-.53771.20317-1.019.51573-1.4191.92523-.40633.4001-.72195.88457-.92206 1.41593-.19693.5095-.33441 1.09079-.3719 1.94093-.04065.85649-.05005 1.12839-.05005 3.30069 0 2.17226.0094 2.44416.04688 3.29756.03748.8501.17508 1.4346.37202 1.941.20316.5376.51878 1.0189.92511 1.419.4001.4063.88457.7221 1.41592.922.5095.197 1.09079.3345 1.94105.3719.8532.0377 1.12522.0469 3.29752.0469 2.17232 0 2.44422-.0092 3.29752-.0469.8501-.0374 1.4346-.1749 1.9409-.3719 1.0753-.4157 1.9254-1.2658 2.3412-2.341.1968-.5095.3344-1.0909.3719-1.941.0375-.8534.0469-1.1253.0469-3.29756 0-2.1723-.0032-2.4442-.0407-3.29752Zm-1.4408 6.53248c-.0345.7815-.1657 1.2034-.2751 1.4847-.2689.697-.8221 1.2503-1.5191 1.5191-.2813.1094-.7063.2407-1.4847.275-.8439.0376-1.097.0468-3.23179.0468-2.13482 0-2.39109-.0092-3.23196-.0468-.7814-.0343-1.20335-.1656-1.48466-.275-.34687-.1282-.6626-.3314-.91888-.597-.26568-.2595-.46884-.572-.59704-.9189-.1094-.2813-.24065-.7064-.27495-1.4847-.03761-.8439-.04689-1.0971-.04689-3.23193 0-2.13482.00928-2.39109.04689-3.23183.0343-.78141.16555-1.20336.27495-1.48467.1282-.34699.33136-.6626.60022-.919.25932-.26568.57188-.46884.91888-.59692.2813-.1094.70643-.24065 1.48466-.27508.84391-.03748 1.09714-.04688 3.23183-.04688 2.13794 0 2.39104.0094 3.23194.04688.7814.03443 1.2034.16568 1.4847.27508.3468.12808.6626.33124.9189.59692.2656.25945.4688.57201.597.919.1094.28131.2406.70631.2751 1.48467.0375.84391.0469 1.09701.0469 3.23183 0 2.13483-.0094 2.38483-.0469 3.22873Z"/>
    <path d="M8.02967 3.89124c-2.26912 0-4.11018 1.84093-4.11018 4.11017 0 2.26929 1.84106 4.11019 4.11018 4.11019 2.26923 0 4.11013-1.8409 4.11013-4.11019 0-2.26924-1.8409-4.11017-4.11013-4.11017Zm0 6.77636c-1.47209 0-2.66617-1.19398-2.66617-2.66619 0-1.47221 1.19408-2.66617 2.66617-2.66617 1.47221 0 2.66613 1.19396 2.66613 2.66617 0 1.47221-1.19392 2.66619-2.66613 2.66619ZM13.262 3.72871c0 .52989-.4296.95954-.9596.95954-.5299 0-.9596-.42965-.9596-.95954 0-.53002.4297-.95954.9596-.95954.53 0 .9596.42952.9596.95954Z"/>
  </g>
  <defs>
    <clipPath id="a">
      <path fill="#fff" d="M0 0h16v16H0z"/>
    </clipPath>
  </defs>
</svg>
