<svg width="16" height="16" fill="none" xmlns="http://www.w3.org/2000/svg">
  <g clip-path="url(#a)" fill="#F4F4FD">
    <path d="M15.9961 15.9999v-.0007h.004v-5.868c0-2.87067-.618-5.08201-3.974-5.08201-1.6133 0-2.69601.88534-3.13801 1.72467h-.04666V5.31719H5.65942V15.9992h3.31334v-5.2893c0-1.39271.264-2.73937 1.98864-2.73937 1.6994 0 1.7247 1.58933 1.7247 2.82867v5.2007h3.31ZM.26404 5.31787h3.31733V15.9999H.26404V5.31787ZM1.92139-.00012C.86073-.00012.00006.86055.00006 1.9212c0 1.06067.86067 1.93934 1.92133 1.93934 1.06067 0 1.92134-.87867 1.92134-1.93934C3.84206.86054 2.98139-.00012 1.92139-.00012Z"/>
  </g>
  <defs>
    <clipPath id="a">
      <path fill="#fff" d="M0 0h16v16H0z"/>
    </clipPath>
  </defs>
</svg>
